<?xml version="1.0"?>
<svg version="1.1" id="topsvg"
xmlns="http://www.w3.org/2000/svg" xmlns:xlink="http://www.w3.org/1999/xlink"
xmlns:cml="http://www.xml-cml.org/schema" x="0" y="0" width="200px" height="200px" viewBox="0 0 100 100">
<title> - Open Babel Depiction</title>
<rect x="0" y="0" width="100" height="100" fill="white"/>
<g transform="translate(0,0)">
<svg width="100" height="100" x="0" y="0" viewBox="0 0 267.453 407.293"
font-family="sans-serif" stroke="rgb(0,0,0)" stroke-width="2"  stroke-linecap="round">
<line x1="144.0" y1="52.4" x2="152.3" y2="78.0" stroke="rgb(255,0,0)"  stroke-width="2.0"/>
<line x1="152.3" y1="78.0" x2="172.4" y2="96.1" stroke="rgb(255,0,0)"  stroke-width="2.0"/>
<line x1="152.3" y1="78.0" x2="178.0" y2="69.7" stroke="rgb(255,0,0)"  stroke-width="2.0"/>
<line x1="152.3" y1="78.0" x2="134.3" y2="98.1" stroke="rgb(255,0,0)"  stroke-width="2.0"/>
<line x1="129.6" y1="120.1" x2="137.9" y2="145.8" stroke="rgb(255,0,0)"  stroke-width="2.0"/>
<line x1="140.2" y1="147.8" x2="122.1" y2="167.9" stroke="rgb(255,0,0)"  stroke-width="2.0"/>
<line x1="135.7" y1="143.8" x2="117.6" y2="163.9" stroke="rgb(255,0,0)"  stroke-width="2.0"/>
<line x1="137.9" y1="145.8" x2="164.3" y2="151.4" stroke="rgb(0,0,0)"  stroke-width="2.0"/>
<line x1="187.0" y1="187.3" x2="188.5" y2="186.8" stroke="rgb(0,0,0)"  stroke-width="1.0"/>
<line x1="185.1" y1="183.4" x2="187.8" y2="182.5" stroke="rgb(0,0,0)"  stroke-width="1.0"/>
<line x1="183.1" y1="179.6" x2="187.1" y2="178.3" stroke="rgb(0,0,0)"  stroke-width="1.0"/>
<line x1="181.2" y1="175.7" x2="186.4" y2="174.0" stroke="rgb(0,0,0)"  stroke-width="1.0"/>
<line x1="179.3" y1="171.8" x2="185.6" y2="169.7" stroke="rgb(0,0,0)"  stroke-width="1.0"/>
<line x1="177.3" y1="167.9" x2="184.9" y2="165.4" stroke="rgb(0,0,0)"  stroke-width="1.0"/>
<polygon points="189.410766 256.890402 226.216958 240.725496 228.689094 248.333948 " stroke-width="2.000000" fill="rgb(0,0,0)"  stroke="rgb(0,0,0)" />
<line x1="189.4" y1="256.9" x2="181.1" y2="282.6" stroke="rgb(0,0,0)"  stroke-width="2.0"/>
<line x1="200.6" y1="327.3" x2="184.7" y2="305.4" stroke="rgb(0,0,0)"  stroke-width="2.0"/>
<line x1="164.7" y1="298.9" x2="139.0" y2="307.3" stroke="rgb(0,0,0)"  stroke-width="2.0"/>
<line x1="139.0" y1="307.3" x2="139.0" y2="347.3" stroke="rgb(0,0,0)"  stroke-width="2.0"/>
<line x1="146.2" y1="313.3" x2="146.2" y2="341.3" stroke="rgb(0,0,0)"  stroke-width="2.0"/>
<line x1="139.0" y1="347.3" x2="164.7" y2="355.6" stroke="rgb(0,0,0)"  stroke-width="2.0"/>
<line x1="184.8" y1="349.0" x2="200.6" y2="327.3" stroke="rgb(0,0,0)"  stroke-width="2.0"/>
<line x1="180.2" y1="343.1" x2="191.2" y2="327.9" stroke="rgb(0,0,0)"  stroke-width="2.0"/>
<line x1="56.3" y1="244.0" x2="45.3" y2="268.7" stroke="rgb(0,0,0)"  stroke-width="2.0"/>
<line x1="49.7" y1="289.2" x2="69.7" y2="307.3" stroke="rgb(0,0,0)"  stroke-width="2.0"/>
<line x1="69.7" y1="307.3" x2="104.4" y2="287.3" stroke="rgb(0,0,0)"  stroke-width="2.0"/>
<line x1="71.3" y1="298.1" x2="95.6" y2="284.1" stroke="rgb(0,0,0)"  stroke-width="2.0"/>
<line x1="104.4" y1="287.3" x2="96.1" y2="248.2" stroke="rgb(0,0,0)"  stroke-width="2.0"/>
<line x1="96.1" y1="248.2" x2="56.3" y2="244.0" stroke="rgb(0,0,0)"  stroke-width="2.0"/>
<line x1="89.3" y1="254.7" x2="61.5" y2="251.8" stroke="rgb(0,0,0)"  stroke-width="2.0"/>
<line x1="69.7" y1="307.3" x2="69.7" y2="334.3" stroke="rgb(0,0,0)"  stroke-width="2.0"/>
<line x1="81.2" y1="353.9" x2="104.4" y2="367.3" stroke="rgb(0,0,0)"  stroke-width="2.0"/>
<line x1="86.5" y1="348.7" x2="102.8" y2="358.1" stroke="rgb(0,0,0)"  stroke-width="2.0"/>
<line x1="104.4" y1="367.3" x2="139.0" y2="347.3" stroke="rgb(0,0,0)"  stroke-width="2.0"/>
<line x1="139.0" y1="307.3" x2="104.4" y2="287.3" stroke="rgb(0,0,0)"  stroke-width="2.0"/>
<line x1="227.5" y1="204.5" x2="189.4" y2="192.2" stroke="rgb(0,0,0)"  stroke-width="2.0"/>
<line x1="189.4" y1="192.2" x2="165.9" y2="224.5" stroke="rgb(0,0,0)"  stroke-width="2.0"/>
<line x1="165.9" y1="224.5" x2="189.4" y2="256.9" stroke="rgb(0,0,0)"  stroke-width="2.0"/>
<line x1="189.4" y1="256.9" x2="227.5" y2="244.5" stroke="rgb(0,0,0)"  stroke-width="2.0"/>
<line x1="227.5" y1="244.5" x2="227.5" y2="204.5" stroke="rgb(0,0,0)"  stroke-width="2.0"/>
<text x="63.725793" y="355.293343" fill="rgb(0,0,0)"  stroke="rgb(0,0,0)" stroke-width="1" font-size="16" >N</text>
<text x="22.000000" y="288.528118" fill="rgb(0,0,0)"  stroke="rgb(0,0,0)" stroke-width="1" font-size="16" >HN</text>
<text x="171.050086" y="367.654022" fill="rgb(0,0,0)"  stroke="rgb(0,0,0)" stroke-width="1" font-size="16" >N</text>
<text x="171.050086" y="302.932663" fill="rgb(0,0,0)"  stroke="rgb(0,0,0)" stroke-width="1" font-size="16" >N</text>
<text x="113.968047" y="48.000000" fill="rgb(255,0,0)"  stroke="rgb(255,0,0)" stroke-width="1" font-size="16" >H</text>
<text x="125.968047" y="51.680000" fill="rgb(255,0,0)"  stroke="rgb(255,0,0)" stroke-width="1" font-size="13" >3</text>
<text x="132.468047" y="48.000000" fill="rgb(255,0,0)"  stroke="rgb(255,0,0)" stroke-width="1" font-size="16" >C</text>
<text x="171.050086" y="162.126782" fill="rgb(0,0,0)"  stroke="rgb(0,0,0)" stroke-width="1" font-size="16" >N</text>
<text x="171.050086" y="146.126782" fill="rgb(0,0,0)"  stroke="rgb(0,0,0)" stroke-width="1" font-size="16" >H</text>
<text x="105.158958" y="183.536107" fill="rgb(255,0,0)"  stroke="rgb(255,0,0)" stroke-width="1" font-size="16" >O</text>
<text x="119.563502" y="115.768054" fill="rgb(255,0,0)"  stroke="rgb(255,0,0)" stroke-width="1" font-size="16" >O</text>
<text x="186.370987" y="73.681581" fill="rgb(255,0,0)"  stroke="rgb(255,0,0)" stroke-width="1" font-size="16" >CH</text>
<text x="210.370987" y="77.361581" fill="rgb(255,0,0)"  stroke="rgb(255,0,0)" stroke-width="1" font-size="13" >3</text>
<text x="178.054519" y="112.807485" fill="rgb(255,0,0)"  stroke="rgb(255,0,0)" stroke-width="1" font-size="16" >CH</text>
<text x="202.054519" y="116.487485" fill="rgb(255,0,0)"  stroke="rgb(255,0,0)" stroke-width="1" font-size="13" >3</text>
</svg>
</g>
<text font-size="18.000000" fill ="black" font-family="sans-serif"
x="10.000000" y="20.000000" ></text>
</svg>
