<?xml version="1.0"?>
<svg version="1.1" id="topsvg"
xmlns="http://www.w3.org/2000/svg" xmlns:xlink="http://www.w3.org/1999/xlink"
xmlns:cml="http://www.xml-cml.org/schema" x="0" y="0" width="200px" height="200px" viewBox="0 0 100 100">
<title> - Open Babel Depiction</title>
<rect x="0" y="0" width="100" height="100" fill="white"/>
<g transform="translate(0,0)">
<svg width="100" height="100" x="0" y="0" viewBox="0 0 281.871 380"
font-family="sans-serif" stroke="rgb(0,0,0)" stroke-width="2"  stroke-linecap="round">
<line x1="114.6" y1="333.5" x2="137.9" y2="320.0" stroke="rgb(0,0,0)"  stroke-width="2.0"/>
<line x1="137.9" y1="320.0" x2="137.9" y2="293.0" stroke="rgb(255,0,0)"  stroke-width="2.0"/>
<line x1="172.6" y1="220.0" x2="172.6" y2="260.0" stroke="rgb(255,0,0)"  stroke-width="2.0"/>
<line x1="172.6" y1="220.0" x2="196.0" y2="206.5" stroke="rgb(255,0,0)"  stroke-width="2.0"/>
<line x1="207.2" y1="160.0" x2="207.2" y2="187.0" stroke="rgb(0,0,0)"  stroke-width="2.0"/>
<line x1="172.6" y1="100.0" x2="137.9" y2="80.0" stroke="rgb(0,0,0)"  stroke-width="2.0"/>
<line x1="137.9" y1="80.0" x2="103.3" y2="100.0" stroke="rgb(0,0,0)"  stroke-width="2.0"/>
<line x1="134.9" y1="80.0" x2="134.9" y2="53.0" stroke="rgb(0,0,0)"  stroke-width="2.0"/>
<line x1="140.9" y1="80.0" x2="140.9" y2="53.0" stroke="rgb(0,0,0)"  stroke-width="2.0"/>
<line x1="149.2" y1="273.5" x2="172.6" y2="260.0" stroke="rgb(255,0,0)"  stroke-width="2.0"/>
<line x1="174.1" y1="257.4" x2="197.5" y2="270.9" stroke="rgb(255,0,0)"  stroke-width="2.0"/>
<line x1="171.1" y1="262.6" x2="194.5" y2="276.1" stroke="rgb(255,0,0)"  stroke-width="2.0"/>
<line x1="66.8" y1="83.7" x2="61.2" y2="57.3" stroke="rgb(0,0,0)"  stroke-width="2.0"/>
<line x1="100.5" y1="126.7" x2="103.3" y2="100.0" stroke="rgb(0,0,0)"  stroke-width="2.0"/>
<line x1="93.6" y1="123.9" x2="95.5" y2="105.2" stroke="rgb(0,0,0)"  stroke-width="2.0"/>
<line x1="103.3" y1="100.0" x2="66.8" y2="83.7" stroke="rgb(0,0,0)"  stroke-width="2.0"/>
<line x1="66.8" y1="83.7" x2="48.8" y2="103.6" stroke="rgb(0,0,0)"  stroke-width="2.0"/>
<line x1="68.1" y1="93.0" x2="55.5" y2="107.0" stroke="rgb(0,0,0)"  stroke-width="2.0"/>
<line x1="46.5" y1="124.7" x2="53.5" y2="136.8" stroke="rgb(0,0,0)"  stroke-width="2.0"/>
<line x1="72.7" y1="145.4" x2="86.4" y2="142.5" stroke="rgb(0,0,0)"  stroke-width="2.0"/>
<line x1="241.9" y1="100.0" x2="207.2" y2="80.0" stroke="rgb(0,0,0)"  stroke-width="2.0"/>
<line x1="207.2" y1="80.0" x2="172.6" y2="100.0" stroke="rgb(0,0,0)"  stroke-width="2.0"/>
<line x1="205.6" y1="89.2" x2="181.4" y2="103.2" stroke="rgb(0,0,0)"  stroke-width="2.0"/>
<line x1="172.6" y1="100.0" x2="172.6" y2="140.0" stroke="rgb(0,0,0)"  stroke-width="2.0"/>
<line x1="172.6" y1="140.0" x2="207.2" y2="160.0" stroke="rgb(0,0,0)"  stroke-width="2.0"/>
<line x1="181.4" y1="136.8" x2="205.6" y2="150.8" stroke="rgb(0,0,0)"  stroke-width="2.0"/>
<line x1="207.2" y1="160.0" x2="241.9" y2="140.0" stroke="rgb(0,0,0)"  stroke-width="2.0"/>
<line x1="241.9" y1="140.0" x2="241.9" y2="100.0" stroke="rgb(0,0,0)"  stroke-width="2.0"/>
<line x1="234.7" y1="134.0" x2="234.7" y2="106.0" stroke="rgb(0,0,0)"  stroke-width="2.0"/>
<text x="131.948059" y="288.000000" fill="rgb(255,0,0)"  stroke="rgb(255,0,0)" stroke-width="1" font-size="16" >O</text>
<text x="32.448757" y="52.604630" fill="rgb(0,0,0)"  stroke="rgb(0,0,0)" stroke-width="1" font-size="16" >H</text>
<text x="44.448757" y="56.284630" fill="rgb(0,0,0)"  stroke="rgb(0,0,0)" stroke-width="1" font-size="13" >2</text>
<text x="50.948757" y="52.604630" fill="rgb(0,0,0)"  stroke="rgb(0,0,0)" stroke-width="1" font-size="16" >N</text>
<text x="34.000000" y="121.456327" fill="rgb(0,0,0)"  stroke="rgb(0,0,0)" stroke-width="1" font-size="16" >N</text>
<text x="54.000000" y="156.097343" fill="rgb(0,0,0)"  stroke="rgb(0,0,0)" stroke-width="1" font-size="16" >O</text>
<text x="93.125904" y="147.780876" fill="rgb(0,0,0)"  stroke="rgb(0,0,0)" stroke-width="1" font-size="16" >N</text>
<text x="131.948059" y="48.000000" fill="rgb(0,0,0)"  stroke="rgb(0,0,0)" stroke-width="1" font-size="16" >O</text>
<text x="201.230091" y="208.000000" fill="rgb(255,0,0)"  stroke="rgb(255,0,0)" stroke-width="1" font-size="16" >O</text>
<text x="201.230091" y="288.000000" fill="rgb(255,0,0)"  stroke="rgb(255,0,0)" stroke-width="1" font-size="16" >O</text>
<text x="77.307043" y="348.000000" fill="rgb(0,0,0)"  stroke="rgb(0,0,0)" stroke-width="1" font-size="16" >H</text>
<text x="89.307043" y="351.680000" fill="rgb(0,0,0)"  stroke="rgb(0,0,0)" stroke-width="1" font-size="13" >3</text>
<text x="95.807043" y="348.000000" fill="rgb(0,0,0)"  stroke="rgb(0,0,0)" stroke-width="1" font-size="16" >C</text>
</svg>
</g>
<text font-size="18.000000" fill ="black" font-family="sans-serif"
x="10.000000" y="20.000000" ></text>
</svg>
